<svg width="800" height="800" viewBox="0 0 800 800" xmlns="http://www.w3.org/2000/svg">

<rect width="800" height="800" fill="none"/>

<!-- Glow Ring -->
<circle cx="400" cy="400" r="220"
fill="none"
stroke="#008BFF"
stroke-width="2"
opacity="0.3"/>

<circle cx="400" cy="400" r="170"
fill="none"
stroke="#008BFF"
stroke-width="2"
opacity="0.2"/>

<!-- Chip Body -->
<rect
x="250"
y="250"
width="300"
height="300"
rx="18"
fill="#061728"
stroke="#008BFF"
stroke-width="4"/>

<!-- Core -->
<rect
x="340"
y="340"
width="120"
height="120"
rx="8"
fill="#008BFF"/>

<!-- Pins Top -->
<rect x="285" y="190" width="20" height="60" fill="#008BFF"/>
<rect x="340" y="190" width="20" height="60" fill="#008BFF"/>
<rect x="395" y="190" width="20" height="60" fill="#008BFF"/>
<rect x="450" y="190" width="20" height="60" fill="#008BFF"/>
<rect x="505" y="190" width="20" height="60" fill="#008BFF"/>

<!-- Pins Bottom -->
<rect x="285" y="550" width="20" height="60" fill="#008BFF"/>
<rect x="340" y="550" width="20" height="60" fill="#008BFF"/>
<rect x="395" y="550" width="20" height="60" fill="#008BFF"/>
<rect x="450" y="550" width="20" height="60" fill="#008BFF"/>
<rect x="505" y="550" width="20" height="60" fill="#008BFF"/>

<!-- Pins Left -->
<rect x="190" y="285" width="60" height="20" fill="#008BFF"/>
<rect x="190" y="340" width="60" height="20" fill="#008BFF"/>
<rect x="190" y="395" width="60" height="20" fill="#008BFF"/>
<rect x="190" y="450" width="60" height="20" fill="#008BFF"/>
<rect x="190" y="505" width="60" height="20" fill="#008BFF"/>

<!-- Pins Right -->
<rect x="550" y="285" width="60" height="20" fill="#008BFF"/>
<rect x="550" y="340" width="60" height="20" fill="#008BFF"/>
<rect x="550" y="395" width="60" height="20" fill="#008BFF"/>
<rect x="550" y="450" width="60" height="20" fill="#008BFF"/>
<rect x="550" y="505" width="60" height="20" fill="#008BFF"/>

</svg>
